<svg xmlns="http://www.w3.org/2000/svg" viewBox="0 0 301.5 57.4">
  <title>Asset 5</title>
  <g id="Layer_2" data-name="Layer 2">
    <g id="Layer_1-2" data-name="Layer 1">
      <rect width="301.5" height="57.38" fill="#fff"/>
      <path d="M256.3,48.3a10.8,10.8,0,1,1,0-21.6,11,11,0,0,1,11.2,10.8A11,11,0,0,1,256.3,48.3Zm0-16.7a6,6,0,0,0-6,5.9,5.9,5.9,0,0,0,6,5.8,6,6,0,0,0,6.1-5.8A6.1,6.1,0,0,0,256.3,31.6Z"/>
      <path d="M285.8,28.7a32.8,32.8,0,0,0-6.9-2.4,93.5,93.5,0,0,0-22.6-2.4c-20.7,0-29.4,4.7-29.5,4.8L224.6,25c.4-.2,9.9-5.4,31.7-5.4S287.6,24.8,288,25Z"/>
      <rect x="224.4" y="12.2" width="63.7" height="4.25"/>
    </g>
  </g>
</svg>
